<?xml version="1.0" encoding="utf-8"?>
<!-- Generator: Adobe Illustrator 23.0.1, SVG Export Plug-In . SVG Version: 6.00 Build 0)  -->
<svg version="1.1" id="Capa_1" xmlns="http://www.w3.org/2000/svg" xmlns:xlink="http://www.w3.org/1999/xlink" x="0px" y="0px"
	 viewBox="0 0 376 144.8" style="enable-background:new 0 0 376 144.8;" xml:space="preserve">
<style type="text/css">
	.st0{fill:#EDEEF0;}
</style>
<g>
	<path class="st0" d="M56,86.1C40,74.4,21.8,61.2,21.7,51.3c0.9-4.4,4.1-10.5,20.3-18.6c11.8-5.9,52.4-19.4,75.1-19.4
		c8.5,0,13,1.3,15.5,4.5c1.7,2.2,2.9,3.3,4.5,3.3c1.5,0,2.7-1.2,2.7-2.8c0-2.5-2.2-5.9-5.4-8.6c-3.8-3.2-10.3-4.8-19.4-4.8
		C99.3,4.7,12.3,22.1,12.3,51.4c0,16.7,22.2,32,39.9,44.3c10,6.9,19.4,13.4,19.5,16.9v1.2c-1.2,2.2-17.6,7.3-30,7.3
		c-3.2,0-4.4-0.3-4.9-0.5c0.1-0.7,0.5-1.7,0.8-2.3l0.6,0.2l0.3,0c1.4,0,2.6-1.3,2.6-2.9c0-3-3.3-5.9-5.9-5.9c-3.4,0-6,5.6-6,9.2
		c0,5.2,4.4,10.5,14.1,10.5c13.2,0,40.1-7.5,40.1-16.2C83.6,106.1,70.8,96.8,56,86.1z"/>
	<path class="st0" d="M165.3,68.1c-0.3,0-0.5,0-0.8,0c0.3-1.4,0.6-2.8,0.6-3.8c0-2.8-3.1-6.9-8.8-6.9c-3.7,0-7.1,0.4-13.3,2.3
		c-1.1-1.2-2.9-3-5.2-3c-5.2,0-12.8,12.5-17.1,24.4c0.7-2.2,1.5-4.3,2.1-6c1.5-4.2,1.8-5.3,1.8-5.9c0-3.2-3.2-5.4-6.1-5.4
		c-5.1,0-15.6,13.5-23.5,24.8c-1.7,2.4-3,4.1-3.9,5.3c0.8-3.3,2.1-7.8,3.1-10.5c0.6-1.7,2.3-7,4.5-13.8c4.4-14,12.6-39.9,14.2-41.8
		c0.9-0.9,2.1-4.3,2.1-5.8c0-2.6-3.2-5.2-5.4-5.2c-3.5,0-5.9,6.3-10.3,17.9c-0.9,2.3-1.8,4.8-2.9,7.5c-3.9,13.5-7.1,23.4-9.6,31.3
		c-4.3,13.5-6.4,20.3-6.4,26.1c0,6.9,5.3,9.2,7.7,9.2c4.2,0,11.1-8.5,20.3-21.5c-1.2,3.7-2,7.6-2,13.3c0,5.2,3.8,7.3,7.4,7.7
		c1.7,0,3.2-1.5,3.2-3.3c0-0.8-0.4-1.4-0.7-1.9c-0.3-0.5-0.5-0.8-0.5-1.4c0-4,1.6-10.3,3.5-16.1c-1.1,3.8-1.8,7.4-1.8,10.2
		c0,8.1,5.3,13.1,10.2,13.1c7.7,0,17.9-16.5,17.9-29c0-4.6-1.1-7-2.9-9.4c0.8-0.3,1.2-1.1,1.5-1.7c0.1-0.2,0.2-0.4,0.3-0.5
		c1.4-0.7,8.4-2.3,11.3-2.7c-2,5.9-11.6,31.7-12.2,32.9l0,0l0,0c-0.1,0.3-11.2,33.9-11.2,36.7c0,2.4,2.9,5,5.5,5
		c3.2,0,5-5.6,8.1-16.4c1.3-4.5,2.8-9.5,4.5-14.1c1.6,0.6,3,0.9,6.7,0.9c10.2,0,19.4-21.4,19.4-29.7
		C176.7,72.6,170.9,68.1,165.3,68.1z M126.1,100.4c-0.1-0.7-0.3-1.6-0.3-2.5c0-8.3,7.3-23.1,9.4-26c0.8,0.7,2.2,2.8,2.2,5.2
		C137.4,83.9,132.2,95.7,126.1,100.4z M166.3,87.2L166.3,87.2c-1.5,5.4-7,15-12.9,15.7c1.7-4.5,7.9-19.5,9-21.3
		c1.7-2.6,3.7-4.5,4.6-5.3c0.2,0.5,0.5,1.4,0.5,2.5C167.6,81.8,166.9,85.2,166.3,87.2z"/>
	<path class="st0" d="M209,92.7c0-7.5,3.1-17.4,4.8-22.7c0.9-2.8,1.2-4,1.2-4.6c0-2.3-3.1-4-5.9-4c-2.6,0-5.8,4.5-7.1,6.5
		c-0.3-0.2-0.7-0.4-1-0.6c-2-1.2-5-3.1-7.6-3.1c-8.8,0-19.1,21.9-19.1,33.2c0.5,7,4.4,11.1,10.4,11.1c1.8,0,3.5-0.8,5-2.3
		c1.9-1.8,6.7-9.8,9.6-14.7c0.1,3.8,0.8,9.9,1.6,11.4c1.1,2,3.6,3.4,6.1,3.4c2.3,0,3.7-1.8,3.7-3.5c0-0.6-0.2-1.2-0.5-1.9
		C209.8,99.4,209,97.2,209,92.7z M197.9,74.9c-4.6,7.7-11,18.6-14,23.1c0.6-9.9,7.9-23.8,12.2-26.5
		C196.5,72.1,197.2,73.3,197.9,74.9L197.9,74.9z"/>
	<path class="st0" d="M248.6,101.7c0-6.7,4.5-19.6,7-26.5c1.5-4.2,1.8-5.3,1.8-5.9c0-3.2-3.2-5.4-6.1-5.4
		c-5.1,0-15.6,13.5-23.5,24.8c-1.7,2.4-3,4.1-3.9,5.3c0.8-3.3,2.1-7.8,3.1-10.5c0.6-1.7,2.3-7,4.5-13.8c4.4-14,12.6-39.9,14.2-41.9
		c0.9-0.9,2.1-4.3,2.1-5.8c0-2.6-3.2-5.2-5.4-5.2c-3.5,0-5.9,6.3-10.3,17.9c-0.9,2.3-1.8,4.8-2.9,7.5c-3.9,13.5-7.1,23.4-9.6,31.3
		c-4.3,13.5-6.4,20.3-6.4,26.1c0,6.9,5.3,9.2,7.7,9.2c4.2,0,11.1-8.5,20.3-21.5c-1.2,3.7-2,7.6-2,13.3c0,5.2,3.8,7.3,7.4,7.7
		c1.7,0,3.2-1.5,3.2-3.3c0-0.8-0.4-1.4-0.7-1.9C248.8,102.6,248.6,102.3,248.6,101.7z"/>
	<path class="st0" d="M316,21.9l0.1-0.9c0-3.8-3.2-7-7.3-7.2c-4.7,0-15.3,8.8-30.7,23.1c-5.4,4.9-9.1,8.1-11.9,10.5
		c-5.6,4.8-6.6,5.7-6.7,7.9c0,2.6,2.9,4.9,4.5,6c-0.3,0.6-1,1.6-1.5,2.5c-2.8,4.4-8,12.5-9.4,23.7c-0.2,1.8-0.4,3.6-0.4,5.5
		c0,8.8,4.1,13.9,11.1,13.9c10.2,0,19.1-19.9,19.1-31.9c0-8.3-4.2-14.1-13.7-18.8c1-0.9,2.8-2.3,4.6-3.8c3-2.4,7.2-5.7,11.7-9.7
		c6.2-6,14.5-12.6,18.2-15.2c-1.3,4.5-5,14-9.1,24.8c-9,23.5-21.4,55.6-23.3,70.7c-0.2,1.9-0.3,2.8-0.3,3.5c0,1,0.3,1.5,0.6,2l0,0.1
		c0.8,1.7,3.3,2.6,5.4,2.6c3.6,0,3.8-2.8,3.9-6c1.5-12.5,12.6-41.3,21.5-64.5C309.4,42.6,315.4,27.2,316,21.9z M270.1,70.6
		L270.1,70.6c1-1.9,1.2-2.2,1.7-2.4c0.3,0.3,1,1.7,1,5.5c0,4.3-0.8,9.7-1.9,13.5c-1.5,4.8-5,9.3-6.6,11.2c-0.1-0.8-0.3-2-0.3-3.8
		C264,90.7,264.6,80.4,270.1,70.6z"/>
	<path class="st0" d="M312.2,51.6c-2.8,0.2-5.9,4.3-5.9,6.9c0,3.1,3.5,6.2,7.1,6.2c2.4,0,2.8-1.5,2.8-2.4c0-1-0.3-1.5-0.7-1.9
		c0,0,0,0,0,0c0.1-0.3,0.6-0.9,0.9-1.2c0.8-1,1.6-1.9,1.6-2.9C318,53.9,314.7,51.6,312.2,51.6C312.2,51.6,312.2,51.6,312.2,51.6z"/>
	<path class="st0" d="M303.5,101c0,0-0.6-0.6-0.6-4.4c0-10.1,4.9-21.7,6.8-22.6c1.5-0.7,2.1-1.9,2.1-4c0-2.9-3.1-5.2-5.8-5.2
		c-0.9,0-1.8,0.4-2.4,1c-4.9,5.2-10.2,18.3-10.2,29.6c0,8.8,5.3,9.8,7.6,9.8c2.1,0,3.8-1.2,3.8-2.8C304.7,102,304.6,101.3,303.5,101
		z"/>
	<path class="st0" d="M353,59.5c-9,0-13.3,10.5-13.3,17.6c0,3.4,1.5,7.5,2.8,11.1c0.9,2.4,1.7,4.6,1.7,5.7c0,0.4-1.6,0.4-1.8,0.4
		c-1.1,0-2.8-0.4-4.4-0.8c-0.8-0.2-1.6-0.4-2.3-0.5c-0.3-2-2.8-3.5-5.9-3.5c-1.4,0-2,0.3-2.8,1.4c-1.2,1.4-6.6,6.8-9,9.1
		c0-0.4,0-0.8,0-1.4c0-9.1,4.1-24,9.4-26.7c0,0,0,0,0,0.1c0,2.7,2.5,4.8,5.6,4.8c3.1,0,3.1-2.7,3.1-3.6c0-6.2-2.9-8.6-10.2-8.6
		c-2.8,0-3.3,0-5,1c-7.8,4-12.7,21.5-12.7,31.9c0,8.1,5.3,11.7,10.6,11.7c4.5,0,10.8-6.1,14.2-10.5c0.1,0,0.2,0.1,0.2,0.1l0.1,0
		c2.6,0.8,3.8,1.3,4.5,1.6c1.5,0.7,1.9,0.8,6.5,1.1c6.2,0,9.3-2,9.3-5.9c0-2.3-1.2-5.3-2.4-8.5c-1.2-2.9-2.4-5.9-2.4-7.9
		c0-4.8,4.2-12.4,6.8-12.4c0.4,0,1.3,0.4,2.1,0.7c1.2,0.5,2.4,1,3.5,1c1.6,0,2.5-1.2,2.5-2.3C363.8,63.5,358.3,59.5,353,59.5z"/>
</g>
</svg>
